<?xml version="1.0" standalone="no"?>
<!DOCTYPE svg PUBLIC "-//W3C//DTD SVG 20010904//EN"
 "http://www.w3.org/TR/2001/REC-SVG-20010904/DTD/svg10.dtd">
<svg version="1.0" xmlns="http://www.w3.org/2000/svg"
 width="1024.000000pt" height="1024.000000pt" viewBox="0 0 1024.000000 1024.000000"
 preserveAspectRatio="xMidYMid meet">
<metadata>
Created by potrace 1.14, written by Peter Selinger 2001-2017
</metadata>
<g transform="translate(0.000000,1024.000000) scale(0.100000,-0.100000)"
fill="#000000" stroke="none">
<path d="M1355 10233 c-202 -24 -375 -76 -546 -164 -402 -208 -679 -577 -781
-1039 l-23 -105 0 -3795 c0 -3665 1 -3798 19 -3895 120 -645 630 -1132 1276
-1220 158 -22 7482 -22 7640 0 685 93 1215 635 1290 1320 8 71 10 1169 8 3850
l-4 3750 -21 96 c-102 461 -382 832 -782 1038 -130 66 -248 109 -396 143
l-100 23 -3775 1 c-2076 1 -3788 -1 -3805 -3z m5795 -2199 l0 -675 -97 -45
c-54 -25 -123 -56 -153 -69 -30 -13 -118 -51 -195 -85 -77 -34 -196 -87 -265
-117 -69 -30 -180 -79 -248 -109 -67 -30 -179 -79 -250 -110 -70 -31 -176 -78
-237 -104 -60 -27 -175 -77 -255 -112 -80 -36 -266 -118 -415 -183 -148 -65
-276 -122 -282 -128 -10 -7 -13 -427 -13 -2037 l0 -2027 -107 -48 c-60 -26
-162 -71 -228 -100 -66 -29 -178 -79 -250 -110 -71 -32 -186 -82 -255 -112
-69 -31 -183 -81 -255 -113 -71 -32 -182 -80 -245 -108 -63 -28 -157 -69 -208
-91 -50 -23 -94 -41 -97 -41 -3 0 -5 911 -5 2025 0 1114 -4 2025 -9 2025 -7 0
-124 -50 -351 -150 -47 -21 -159 -70 -250 -110 -91 -40 -203 -89 -250 -110
-47 -21 -159 -70 -250 -110 -91 -40 -203 -89 -250 -110 -47 -21 -137 -60 -200
-88 -63 -28 -279 -123 -479 -211 -201 -89 -368 -161 -373 -161 -4 0 -8 305 -8
678 l1 677 62 27 c73 32 293 128 465 204 67 30 178 79 247 109 204 90 372 164
502 221 68 30 179 79 248 109 69 30 180 79 247 109 115 51 298 131 903 398
138 60 305 134 373 164 67 30 178 79 247 109 176 77 359 158 505 222 228 100
285 125 325 143 22 10 78 34 125 55 47 21 103 45 125 55 22 10 78 34 125 55
47 21 103 45 125 55 52 23 196 86 260 115 28 12 84 37 125 55 41 18 185 81
320 140 135 59 360 159 500 220 140 62 338 150 440 195 102 46 191 84 198 84
9 1 12 -140 12 -675z m10 -2384 c0 -544 3 -990 8 -990 4 1 547 239 1207 529
660 291 1203 527 1208 524 4 -2 7 -306 7 -674 l0 -670 -62 -29 c-35 -15 -121
-54 -193 -85 -71 -32 -186 -82 -255 -112 -171 -76 -359 -158 -455 -200 -44
-20 -98 -44 -120 -53 -22 -10 -139 -61 -260 -114 -121 -54 -233 -103 -250
-111 -39 -18 -280 -124 -375 -165 -41 -18 -97 -43 -125 -55 -69 -31 -293 -130
-390 -172 -44 -18 -93 -40 -110 -48 -16 -8 -73 -33 -125 -56 -52 -22 -113 -49
-135 -59 -68 -30 -208 -92 -250 -110 -22 -10 -78 -34 -125 -55 -47 -21 -103
-45 -125 -55 -22 -10 -78 -34 -125 -55 -47 -21 -103 -45 -125 -55 -87 -38
-206 -90 -326 -144 -70 -31 -132 -56 -138 -56 -8 0 -11 459 -11 1671 l0 1670
78 35 c42 19 91 41 107 49 17 8 129 57 250 110 121 52 234 102 250 110 17 8
129 57 250 110 260 113 419 184 570 253 61 27 118 50 128 51 16 1 17 -52 17
-989z"/>
</g>
</svg>
